<svg
    xmlns="http://www.w3.org/2000/svg"
    viewBox="0 0 24 24"
    width="24"
    height="24"
    fill="none"
    role="img"
    aria-hidden="true"
    shape-rendering="geometricPrecision"
    overflow="visible"
>
  <path
    fill="#FF0000"
    d="M23.498 6.186a3.016 3.016 0 0 0-2.122-2.136C19.505 3.545 12 3.545 12 3.545s-7.505 0-9.377.505A3.017 3.017 0 0 0 .502 6.186C0 7.07 0 9.313 0 9.313s0 2.244.502 3.13a3.016 3.016 0 0 0 2.122 2.135c1.871.5 9.377.5 9.377.5s7.505 0 9.377-.5a3.013 3.013 0 0 0 2.122-2.135C24 9.31 24 7.07 24 7.07s.004-2.24-.502-3.12z"
  />
  <path
    fill="#fff"
    d="M9.75 15.02L9.75 8.98L15.5 12L9.75 15.02z"
  />
</svg>
