<svg xmlns="http://www.w3.org/2000/svg" viewBox="0 0 24 24" width="24" height="24" fill="none" role="img" aria-label="">
  <path
    fill="#FF0000"
    d="M23.498 6.186a2.9 2.9 0 0 0-2.044-2.05C19.5 3.5 12 3.5 12 3.5s-7.5 0-9.454.186A2.9 2.9 0 0 0 .502 6.186C.312 7.2 0 9.1 0 9.1s.186 1.8.186 2.8c.002 1.1.3 1.8.3 1.8a2.9 2.9 0 0 0 2.044 2.05C4.5 20.5 12 20.5 12 20.5s7.5 0 9.454-.186a2.9 2.9 0 0 0 2.044-2.05c.19-1.01.3-1.7.3-1.7V9.1s-.3-1.7-.3-1.7z" />
  <path fill="#fff" d="M9.75 15.02v-6l4.5 3-4.5 3.02z" />
</svg>
